<svg xmlns="http://www.w3.org/2000/svg" fill="none" viewBox="0 0 100 30"><rect width="100" height="30" fill="#5a31f4" rx="3.72"/><g fill="#fff" clip-path="url(#a)"><path d="m24.08 12.26-2 1q-.66-1.16-1.95-1.17-1.42 0-1.42.85c0 .6.7.74 2.27 1.08 1.58.34 3.37.84 3.37 2.8 0 1.89-1.48 3.03-3.93 3.03-1.97 0-3.44-.84-4.12-2.32l2-.98a2.2 2.2 0 0 0 2.12 1.38q1.53.02 1.53-.9c0-.6-.7-.73-2.28-1.07s-3.35-.84-3.35-2.8c0-1.83 1.46-2.99 3.81-2.99 1.84 0 3.23.74 3.95 2.09m1.67-5.31h2.46v4.32c.65-.7 1.58-1.1 2.64-1.1 2.13 0 3.64 1.63 3.64 3.95v5.63h-2.46v-5.63c0-1.08-.8-1.88-1.9-1.88s-1.92.81-1.92 1.88v5.63h-2.46zm10.35 3.9c.82-.56 2-.96 3.25-.96 3.34 0 5.77 2.26 5.77 5.35 0 2.88-2.09 4.9-5 4.9-2.48 0-4.26-1.68-4.26-3.92 0-1.51.91-2.63 2.2-3.07l1.04 1.77c-.7.32-.96.8-.96 1.38 0 .97.81 1.65 1.99 1.65a2.6 2.6 0 0 0 2.58-2.67c0-1.8-1.42-3.17-3.36-3.17-.76 0-1.5.21-2.14.62zm12.85 7.82v4.38h-2.47V10.27h2.41v1.15a4 4 0 0 1 2.96-1.25c2.6 0 4.63 2.1 4.63 4.84a4.67 4.67 0 0 1-4.63 4.84 4 4 0 0 1-2.9-1.18m5.08-3.68c0-1.57-1.1-2.73-2.6-2.73-1.48 0-2.6 1.17-2.6 2.73s1.12 2.73 2.6 2.73c1.5 0 2.6-1.16 2.6-2.73"/></g><path fill="#fff" d="M81.24 6.95c1.36 0 2.46 1.1 2.46 2.46v11.18c0 1.36-1.1 2.46-2.46 2.46H61.19a2.46 2.46 0 0 1-2.46-2.46V9.41c0-1.36 1.1-2.46 2.46-2.46zm-6.77 6.36 2.14 5.02c-.35.6-.67.8-1.33.8h-.55v.97h.52c1.2 0 1.98-.35 2.46-1.52l2-5.27h-1.17l-1.35 3.67-1.53-3.67zm-2.84-.15c-1.35 0-2.13.68-2.13 1.83h1.05c0-.55.39-.88 1.07-.88.71 0 1.04.32 1.03.85v.25l-1.21.13c-1.37.15-2.12.67-2.12 1.57 0 .75.52 1.45 1.7 1.45.87 0 1.44-.38 1.7-1.04.08.73.53 1.1 1.49.85v-.78c-.38.04-.46-.1-.46-.5v-1.93c0-1.13-.74-1.8-2.12-1.8m-8.07-2.3v7.35h1.15v-2.83h1.78c1.63 0 2.5-.92 2.5-2.3 0-1.39-.87-2.22-2.5-2.22zm9.06 5.19c-.04.82-.6 1.46-1.37 1.46-.6 0-.83-.32-.83-.64 0-.43.49-.63 1.45-.74zm-6.4-4.1c1.06 0 1.58.44 1.58 1.17 0 .72-.5 1.15-1.53 1.15h-1.56v-2.31z"/><defs><clipPath id="a"><path fill="#fff" d="M16.3 6.95h40.18v16.1H16.3z"/></clipPath></defs></svg>
